<?xml version="1.0" standalone="no"?>
<!DOCTYPE svg PUBLIC "-//W3C//DTD SVG 20010904//EN"
 "http://www.w3.org/TR/2001/REC-SVG-20010904/DTD/svg10.dtd">
<svg version="1.0" xmlns="http://www.w3.org/2000/svg"
 width="512.000000pt" height="512.000000pt" viewBox="0 0 512.000000 512.000000"
 preserveAspectRatio="xMidYMid meet">
<metadata>
Created by potrace 1.11, written by Peter Selinger 2001-2013
</metadata>
<g transform="translate(0.000000,512.000000) scale(0.100000,-0.100000)"
fill="#000000" stroke="none">
<path d="M415 5110 c-183 -38 -330 -170 -391 -350 -18 -53 -19 -134 -19 -2200
0 -2066 1 -2147 19 -2200 52 -154 168 -274 322 -332 l59 -23 2155 0 2155 0 59
23 c154 58 270 178 322 332 18 53 19 134 19 2200 0 2066 -1 2147 -19 2200 -52
154 -168 274 -322 332 l-59 23 -2130 1 c-1172 1 -2148 -2 -2170 -6z m3935
-1194 l0 -253 -132 -7 c-518 -27 -801 -133 -962 -360 -97 -135 -131 -273 -123
-495 10 -294 82 -432 297 -572 164 -107 281 -139 431 -119 128 17 218 52 704
270 248 111 456 204 463 207 9 4 12 -55 12 -273 l0 -279 -693 -324 c-792 -371
-950 -442 -1242 -551 -325 -121 -583 -188 -810 -210 -68 -6 -512 -10 -1157
-10 l-1048 0 0 280 0 280 1079 0 c1171 0 1180 0 1430 56 63 14 180 47 260 74
152 50 371 139 371 151 0 3 -27 17 -60 29 -188 70 -390 279 -487 501 -127 294
-118 710 24 1054 102 247 329 487 581 614 225 114 583 184 965 190 l97 1 0
-254z"/>
</g>
</svg>
