<?xml version="1.0" standalone="no"?>
<!DOCTYPE svg PUBLIC "-//W3C//DTD SVG 20010904//EN"
 "http://www.w3.org/TR/2001/REC-SVG-20010904/DTD/svg10.dtd">
<svg version="1.0" xmlns="http://www.w3.org/2000/svg"
 width="512.000000pt" height="512.000000pt" viewBox="0 0 512.000000 512.000000"
 preserveAspectRatio="xMidYMid meet">
<metadata>
Created by potrace 1.11, written by Peter Selinger 2001-2013
</metadata>
<g transform="translate(0.000000,512.000000) scale(0.100000,-0.100000)"
fill="#000000" stroke="none">
<path d="M377 5105 c-173 -47 -316 -193 -362 -366 -22 -81 -22 -4277 0 -4358
46 -176 190 -320 366 -366 81 -22 4277 -22 4358 0 176 46 320 190 366 366 22
81 22 4277 0 4358 -46 176 -190 320 -366 366 -77 21 -4287 21 -4362 0z m3963
-1188 l0 -254 -147 -6 c-290 -12 -503 -55 -673 -138 -91 -45 -116 -63 -190
-138 -98 -98 -148 -183 -182 -308 -17 -63 -21 -106 -21 -228 -1 -298 66 -450
261 -593 183 -135 339 -176 529 -136 115 24 183 51 661 265 243 110 445 199
447 199 3 0 5 -123 5 -273 l0 -272 -627 -294 c-346 -162 -702 -328 -793 -369
-492 -221 -914 -362 -1221 -407 -91 -13 -266 -15 -1203 -15 l-1096 0 0 275 0
274 1152 4 c1258 4 1166 0 1417 63 176 44 581 193 581 214 0 4 -30 19 -67 33
-247 97 -459 355 -541 657 -24 87 -26 112 -26 305 0 165 4 229 18 300 74 368
261 649 558 838 233 148 540 227 958 247 85 4 165 8 178 8 l22 2 0 -253z"/>
</g>
</svg>
