<?xml version="1.0" standalone="no"?>
<!DOCTYPE svg PUBLIC "-//W3C//DTD SVG 20010904//EN"
 "http://www.w3.org/TR/2001/REC-SVG-20010904/DTD/svg10.dtd">
<svg version="1.0" xmlns="http://www.w3.org/2000/svg"
 width="512.000000pt" height="512.000000pt" viewBox="0 0 512.000000 512.000000"
 preserveAspectRatio="xMidYMid meet">
<metadata>
Created by potrace 1.11, written by Peter Selinger 2001-2013
</metadata>
<g transform="translate(0.000000,512.000000) scale(0.100000,-0.100000)"
fill="#000000" stroke="none">
<path d="M430 5113 c-180 -30 -335 -161 -402 -339 l-23 -59 -3 -1658 -2 -1658
1167 4 c1059 3 1177 4 1263 20 243 45 504 124 753 229 l127 54 -78 32 c-284
116 -514 400 -598 735 -19 78 -27 139 -31 257 -19 521 151 933 503 1221 279
228 612 334 1159 369 88 5 181 10 207 10 l48 0 0 -279 0 -279 -62 -6 c-35 -3
-117 -8 -183 -11 -308 -14 -581 -85 -747 -194 -95 -62 -203 -178 -250 -266
-81 -155 -113 -356 -89 -555 31 -248 95 -372 258 -494 215 -161 383 -210 587
-171 120 22 213 59 664 261 l422 189 -2 1095 -3 1095 -23 59 c-30 81 -73 144
-135 203 -63 59 -106 86 -183 116 l-59 22 -2130 1 c-1172 1 -2141 -1 -2155 -3z"/>
<path d="M4405 1576 c-390 -183 -781 -363 -869 -400 -416 -179 -780 -298
-1106 -363 -76 -15 -205 -17 -1259 -20 l-1173 -4 4 -192 c4 -164 8 -201 27
-251 55 -152 177 -270 331 -322 53 -18 134 -19 2200 -19 2066 0 2147 1 2200
19 154 52 274 169 332 322 22 58 23 65 26 689 1 347 1 685 0 752 l-3 122 -710
-333z"/>
</g>
</svg>
